<svg id="Layer_1" data-name="Layer 1" xmlns="http://www.w3.org/2000/svg" viewBox="0 0 612 792"><defs><style>.cls-1{fill:#fff;}.cls-2{fill:#d3887d;}.cls-3{fill:#ab5d54;}</style></defs><rect class="cls-1" width="612" height="792"/><path class="cls-2" d="M289.43,174.77c-36.07,19.89-70.25,41.92-102.1,63.68-5.89,5.12-7.77,13.79-8.66,23.33V534.45c1.37,18,12.12,28.14,27.24,33a2.62,2.62,0,0,0,3.4-2.53l-1.94-293.48c2-9.32,10.46-18.56,18.63-23L317,194a10,10,0,0,1,7.84-1l3.66,1a6.7,6.7,0,0,1,4.19,3.46h0a6.09,6.09,0,0,1-.54,6.35l-1.45,2L264,246.11l-15.26,10.48a19.43,19.43,0,0,0-8.25,13.35l-1.82,13.17L239,569.45c-.25,7.57,1.61,12.93,5,16.66,5.69,6.68,7.26,7.63,17,13l38.69,21c5,.36,9.4-2.05,15.66-5.66l106.91-65.82s10.93-7.32,11.09-12.18v-130c-1.23-7.1-5.71-11.09-11.66-13.67l-13.53-8.12a2.51,2.51,0,0,1-.3-4.11,103.72,103.72,0,0,0,10.93-10.13A21,21,0,0,0,424.24,356l-1.91-121.52c.39-5.74-3.68-11.26-7.45-14.51-18.54-10.22-32.73-20.12-47.54-26.51a12.78,12.78,0,0,0-4.88-1l-13.69-.23a13.9,13.9,0,0,1-5.89-1.44L306,172.45h0A23.42,23.42,0,0,0,289.43,174.77Z"/><path class="cls-1" d="M364.67,223.11v97.34c-.63,6.86-2.09,12.38-5.12,15.34a23.29,23.29,0,0,0-2.18,2.38c-3.62,4.67-10.55,8.72-18.94,12.52a166.26,166.26,0,0,0-15.12,7.82l-53.64,31.27c-3.17,8.75-2.78,16.15,1.66,22,4.17,3.75,9.54,4.89,16,3.67l99.34-59c5.85-3.71,8.84-10.38,8.66-20.34v-88.5c0-3.2.15-6.39.33-9.58.45-8.09-.35-15.64-3.33-22.25-3.45-3.81-7.83-4.89-13-3.67A21.37,21.37,0,0,0,364.67,223.11Z"/><path class="cls-1" d="M331.58,241.05l-57.91,37.73a20.14,20.14,0,0,0-6,16.33v52.8a3.25,3.25,0,0,0,3.9,3.18,43.42,43.42,0,0,0,14.6-5.57,162.46,162.46,0,0,1,15.09-8.3,275.23,275.23,0,0,0,25.07-14.44,31.86,31.86,0,0,0,8-16.67v-37a125.76,125.76,0,0,0-1.66-27.57A.71.71,0,0,0,331.58,241.05Z"/><path class="cls-1" d="M335.91,420.52c-25,13.18-61.24,37.93-61.24,37.93a31,31,0,0,0-7,19.33v49.35A4.08,4.08,0,0,0,272,531.2a17.5,17.5,0,0,0,9.06-3.27,35.28,35.28,0,0,1,3.16-1.95L329,500.78c4.43-3.65,11.23-12.57,12-20.33l.32-48.31c.35-2.54.5-8.12-1.8-10.9A2.93,2.93,0,0,0,335.91,420.52Z"/><path class="cls-1" d="M373.33,405.07l-1.66,34.66V485.4a31.17,31.17,0,0,1-.37,7.29,36.06,36.06,0,0,1-16.56,24.43L314.67,542.4l-42.91,28.06a3.81,3.81,0,0,0-.83.72c-.14.16-.29.35-.47.58a15.47,15.47,0,0,0-2.36,10.71,24.63,24.63,0,0,0,4.7,11.2,9.86,9.86,0,0,0,7.17,3.71,18.29,18.29,0,0,0,11.12-2.89c4.19-2.67,8-5.15,12.13-8.19L359,553.4l36.16-21.89.34-.23c7.72-5.62,9-17.27,8.83-27.21V402.6c0-.13,0-.27,0-.4-.48-5.42-2.32-9.08-5.82-10.6a3.73,3.73,0,0,0-1-.27,22.35,22.35,0,0,0-14.14,2.4C377.08,396.93,373.63,400.69,373.33,405.07Z"/><path class="cls-3" d="M273.26,531.07c7.29-.12,7.06-2.1,21.18-10.83v35c-7.4,3.29-15.52,9.28-24,16.54l0-40.89A3.39,3.39,0,0,0,273.26,531.07Z"/><path class="cls-3" d="M273.4,350.68c6.75-.38,7.58-.92,21-10v34.62c-8.52,2.79-16.43,7.72-24,14V351.11A23.53,23.53,0,0,0,273.4,350.68Z"/><path class="cls-3" d="M364.67,225.47a159.75,159.75,0,0,0,0,37.67l-30.14,15.33c1.64-14.56,1.44-33.26-2.23-37.45C332.64,241,352.91,231.7,364.67,225.47Z"/><path class="cls-3" d="M373.54,403.67c-2.27,13.34-3.13,25.2-1.8,34.74l-30.49,3.88c1.14-14.56,2.42-15.83-1.73-21.05C339.86,421.21,361.79,409.9,373.54,403.67Z"/></svg>