<svg version="1.2" xmlns="http://www.w3.org/2000/svg" viewBox="0 0 500 159" width="500" height="159">
	<title>MedFaik’s</title>
	<defs>
		<clipPath clipPathUnits="userSpaceOnUse" id="cp1">
			<path d="m0 9.77h54v54h-54z"/>
		</clipPath>
	</defs>
	<style>
		.s0 { fill: #001d68 } 
		.s1 { fill: #ff6937 } 
	</style>
	<g id="5aece225ca">
		<g>
			<g>
				<path class="s0" d="m88.3 109.4l-3.6-44.8h-0.4l-15.5 44.4h-10.3l-15.5-44.4h-0.5l-3.5 44.8h-17.3l6.8-75.6h18.4l16.8 43.6 16.7-43.6h18.4l6.7 75.6z"/>
			</g>
		</g>
		<g>
			<g>
				<path class="s0" d="m160.1 88.2h-34.1q0 4.9 3.2 7.3 3.2 2.4 7 2.4 3.9 0 6.2-1.1 2.3-1 5.2-4.1l11.8 5.8q-7.4 12.3-24.4 12.3-10.7 0-18.3-7.3-7.6-7.3-7.6-17.5 0-10.3 7.6-17.7 7.6-7.3 18.3-7.3 11.1 0 18.2 6.5 7 6.5 7 18.5 0 1.6-0.1 2.2zm-33.7-9h17.9q-0.5-3.7-2.9-5.7-2.3-1.9-6-1.9-4 0-6.4 2.1-2.4 2.1-2.6 5.5z"/>
			</g>
		</g>
		<g>
			<g>
				<path class="s0" d="m171 103.6q-6.6-7.2-6.6-17.6 0-10.5 6.6-17.7 6.6-7.3 16.8-7.3 9.3 0 15.4 5.9v-36.3h16.2v78.8h-16v-5.3h-0.2q-6.1 6.7-15.4 6.7-10.2 0-16.8-7.2zm13.8-25.6q-3.2 3.1-3.2 8 0 4.8 3.1 7.9 3 3.1 7.9 3.1 4.8 0 7.9-3.2 3-3.1 3-7.8 0-4.9-3.1-8-3.2-3.1-7.8-3.1-4.6 0-7.8 3.1z"/>
			</g>
		</g>
		<g>
			<g>
				<path class="s0" d="m274.1 33.8v15.1h-26.5v15.1h24.5v15.1h-24.5v30.3h-17.2v-75.6z"/>
			</g>
		</g>
		<g>
			<g>
				<path class="s0" d="m285.6 103.6q-6.6-7.2-6.6-17.6 0-10.5 6.6-17.7 6.6-7.3 16.8-7.3 9.3 0 15.4 5.9v-4.5h16.2v47h-16v-5.3h-0.2q-6.1 6.7-15.4 6.7-10.2 0-16.8-7.2zm13.8-25.6q-3.2 3.1-3.2 8 0 4.8 3.1 7.9 3 3.1 7.9 3.1 4.8 0 7.9-3.2 3-3.1 3-7.8 0-4.9-3.1-8-3.2-3.1-7.8-3.1-4.7 0-7.8 3.1z"/>
			</g>
		</g>
		<g>
			<g>
				<path class="s0" d="m346.5 36.2q2.9-2.9 6.8-2.9 4 0 6.8 2.9 2.9 2.8 2.9 6.8 0 3.9-2.9 6.7-2.8 2.9-6.8 2.9-3.9 0-6.8-2.9-2.8-2.8-2.8-6.7 0-4 2.8-6.8zm-1.5 26.2v47h16.2v-47z"/>
			</g>
		</g>
		<g>
			<g>
				<path class="s0" d="m426.4 62.4l-22.4 22.5 24.6 24.5h-20.9l-18.8-18.8v18.8h-16.2v-78.8h16.2v48.2l16.4-16.4z"/>
			</g>
		</g>
		<g>
			<g>
				<path class="s0" d="m434.7 35.2q2.7-2.8 6.6-2.8 4 0 6.8 2.9 2.9 2.8 2.9 6.7 0 12.1-13.9 23.8l-4.4-3.4q0.6-0.5 1.5-1.5 0.8-1 2.6-4.1 1.7-3 2.3-6.1-3.2-0.8-5.2-3.1-2-2.4-2-5.6 0-4 2.8-6.8z"/>
			</g>
		</g>
		<g>
			<g>
				<path class="s0" d="m479 61q4.1 0 8 0.9 4 1 5.9 1.9l1.9 0.9-5.3 10.6q-5.5-2.9-10.5-2.9-2.7 0-3.9 0.6-1.1 0.6-1.1 2.2 0 0.4 0.1 0.8 0.1 0.3 0.3 0.7 0.3 0.3 0.6 0.5 0.2 0.2 0.7 0.5 0.6 0.3 0.9 0.4 0.3 0.2 1 0.4 0.8 0.3 1.2 0.5 0.3 0.1 1.2 0.4 0.9 0.2 1.3 0.3 2.9 0.9 5 1.9 2.1 1 4.4 2.7 2.4 1.8 3.6 4.4 1.3 2.7 1.3 6.1 0 16-22.2 16-5.1 0-9.6-1.6-4.6-1.5-6.6-3.1l-2-1.6 6.6-11.1q0.7 0.6 1.9 1.5 1.2 0.9 4.3 2.4 3.1 1.5 5.4 1.5 5.1 0 5.1-3.4 0-1.6-1.3-2.4-1.3-0.9-4.4-2-3-1.1-4.8-2-4.4-2.3-6.9-5.2-2.6-2.9-2.6-7.7 0-7.1 5.5-11.1 5.6-4 15-4z"/>
			</g>
		</g>
		<g id="Clip-Path" clip-path="url(#cp1)">
			<g>
				<path class="s1" d="m0 9.8h54q-2.8 0-5.5 0.3-2.7 0.2-5.4 0.8-2.6 0.5-5.2 1.3-2.5 0.8-4.9 1.8-4.8 2.1-9.2 5-4.3 2.9-8 6.6-3.7 3.7-6.6 8-2.9 4.3-5 9.2-1 2.4-1.8 4.9-0.8 2.6-1.3 5.2-0.5 2.7-0.8 5.3-0.3 2.8-0.3 5.6z"/>
			</g>
		</g>
		<g>
			<g>
				<path class="s0" d="m41.7 137.9q0 1.7-0.8 3.3-0.8 1.5-2.1 2.5-2.5 2-6.8 2h-8.6v-28.1h7.6q6.1 0 8 3.8 0.6 1.4 0.7 2.8 0 1.4-0.2 2.2-0.3 0.8-0.7 1.5-1 1.7-2.4 2.3 2.4 0.7 3.9 2.7 1.4 2 1.4 5zm-4.9-13.3q0-4.2-5.8-4.2h-4.7v8.7h5.5q2.2 0 3.6-1.1 1.4-1.1 1.4-3.4zm2 12.7q0-1.2-0.4-2.2-0.5-0.9-1.3-1.6-1.6-1.5-3.8-1.5h-7v10.9h6.5q2.6 0 4.3-1.5 1.7-1.6 1.7-4.1z"/>
			</g>
		</g>
		<g>
			<g>
				<path class="s0" d="m73.3 131.6q0 3-1.1 5.6-1.2 2.6-3.1 4.6-2 2-4.6 3.1-2.7 1.2-5.7 1.2-2.9 0-5.5-1.2-2.7-1.1-4.6-3.1-2-2-3.1-4.6-1.2-2.6-1.2-5.6 0-3 1.2-5.6 1.1-2.7 3.1-4.6 1.9-2 4.6-3.1 2.6-1.1 5.5-1.1 3 0 5.7 1.1 2.6 1.1 4.6 3.1 1.9 1.9 3.1 4.6 1.1 2.6 1.1 5.6zm-2.9 0q0-4.8-3.4-8.2-3.4-3.3-8.2-3.3-4.7 0-8.1 3.3-3.4 3.4-3.4 8.2 0 4.8 3.4 8.2 3.4 3.4 8.1 3.4 4.8 0 8.2-3.4 3.4-3.4 3.4-8.2z"/>
			</g>
		</g>
		<g>
			<g>
				<path class="s0" d="m105.9 131.6q0 3-1.1 5.6-1.2 2.6-3.1 4.6-2 2-4.6 3.1-2.7 1.2-5.6 1.2-3 0-5.6-1.2-2.7-1.1-4.6-3.1-2-2-3.1-4.6-1.2-2.6-1.2-5.6 0-3 1.2-5.6 1.1-2.7 3.1-4.6 1.9-2 4.6-3.1 2.6-1.1 5.6-1.1 2.9 0 5.6 1.1 2.6 1.1 4.6 3.1 1.9 1.9 3.1 4.6 1.1 2.6 1.1 5.6zm-2.9 0q0-4.8-3.4-8.2-3.4-3.3-8.1-3.3-4.8 0-8.2 3.3-3.4 3.4-3.4 8.2 0 4.8 3.4 8.2 3.4 3.4 8.2 3.4 4.7 0 8.1-3.4 3.4-3.4 3.4-8.2z"/>
			</g>
		</g>
		<g>
			<g>
				<path class="s0" d="m113.8 145.7h-2.9v-28.1h2.9v13.2l9.4-13.2h3.8l-10.4 14.1 10.4 14h-3.8l-9.4-13.2z"/>
			</g>
		</g>
		<g>
			<g>
				<path class="s0" d="m133.4 145.7h-2.9v-28.1h2.9z"/>
			</g>
		</g>
		<g>
			<g>
				<path class="s0" d="m142.5 125v20.7h-2.9v-29.9l15.7 22.5v-20.7h2.9v29.8z"/>
			</g>
		</g>
		<g>
			<g>
				<path class="s0" d="m192.2 132.6l-0.3 1.7q-0.9 5.1-5 8.4-4.1 3.4-9.2 3.4-3 0-5.7-1.2-2.6-1.1-4.5-3.1-2-2-3.1-4.6-1.2-2.6-1.2-5.7 0-2.9 1.2-5.6 1.1-2.6 3.1-4.6 1.9-2 4.5-3.1 2.7-1.1 5.4-1.1 5 0 8.8 2.8 3.9 2.9 5.3 7.5h-3q-1.3-3.4-4.3-5.4-3-2-6.5-2-4.8 0-8.2 3.4-3.4 3.3-3.4 8.1 0 4.8 3.4 8.2 3.3 3.5 8.2 3.5 3.8 0 6.9-2.2 3.1-2.3 4.3-5.9h-11.4v-2.5z"/>
			</g>
		</g>
	</g>
</svg>