<svg xmlns="http://www.w3.org/2000/svg" fill="none" viewBox="0 0 24 24"><path fill="#fff" d="M4 4v16h16V4z"/><path fill="#006FCF" d="m17.146 7.926.512-1.392H20V4H4v16h16v-2.528h-2.208l-.816-.954-.848.954H9.856V12.39h-2.07l2.587-5.856h2.517l.608 1.328V6.534h3.126zm-1.77.362 1.253 3.339h1.035l1.248-3.333v3.333H20V7.36h-1.808l-1.04 2.753-1.05-2.753h-1.809v4.267h1.088zm-2.336 3.339h1.253L12.416 7.36H10.96l-1.888 4.267h1.237l.33-.821h2.07zm-1.366-3.355.656 1.61h-1.312zm-.944 4.123v4.25h3.563v-.922h-2.475v-.741h2.427v-.918h-2.427v-.746h2.475v-.923zm7.526 4.25h1.413l-1.995-2.133 1.995-2.117h-1.392l-1.285 1.381-1.28-1.381h-1.419l1.99 2.133-1.99 2.118h1.376l1.296-1.387zm.538-2.138L20 15.734v-2.438z"/></svg>