<svg xmlns="http://www.w3.org/2000/svg" fill="none" viewBox="0 0 24 24"><path fill="#fff" d="M2.22 5.582v12.773c0 .225.196.409.439.409H14.84c3.411 0 6.176-3.854 6.176-7.03S18.25 5.173 14.84 5.173H2.66c-.243 0-.44.183-.44.409"/><path fill="#231F20" d="M4.323 12.633c-.166.14-.383.202-.725.202h-.142V11.16h.142c.342 0 .55.057.725.204a.83.83 0 0 1 .294.63c0 .244-.11.486-.294.638m-.619-1.901h-.778v2.53H3.7c.411 0 .709-.09.97-.291.31-.24.493-.6.493-.972 0-.747-.6-1.267-1.459-1.267M5.407 13.263h.53v-2.531h-.53zM7.233 11.703c-.318-.11-.411-.182-.411-.318 0-.16.166-.281.395-.281.159 0 .29.06.427.205l.278-.338a1.24 1.24 0 0 0-.799-.281c-.48 0-.848.311-.848.725 0 .349.171.528.67.694.207.069.312.114.366.145.105.064.159.155.159.261 0 .205-.176.357-.412.357a.63.63 0 0 1-.579-.337l-.342.307c.244.334.537.482.94.482.552 0 .938-.341.938-.831 0-.402-.178-.584-.782-.79M8.182 12c0 .743.628 1.32 1.435 1.32.228 0 .424-.042.665-.147v-.582c-.212.198-.4.278-.64.278-.534 0-.913-.36-.913-.873 0-.487.39-.87.888-.87.253 0 .444.084.665.285v-.58a1.44 1.44 0 0 0-.652-.156c-.804 0-1.448.588-1.448 1.324M14.485 12.432l-.725-1.7h-.579l1.154 2.596h.285l1.174-2.596h-.575zM16.034 13.263h1.503v-.429h-.973v-.683h.937v-.428h-.937v-.562h.973v-.43h-1.503zM18.573 11.897h-.155v-.766h.163c.33 0 .51.128.51.375 0 .254-.18.391-.518.391m1.064-.418c0-.474-.351-.747-.962-.747h-.787v2.53h.53v-1.016h.07l.733 1.017h.652l-.856-1.066c.4-.076.62-.33.62-.718"/><path fill="#F47922" d="M13.332 11.995c0 .74-.644 1.34-1.439 1.34s-1.44-.6-1.44-1.34.645-1.34 1.44-1.34 1.44.6 1.44 1.34"/><path fill="#F47922" d="M21.016 11.734c0 3.176-2.765 7.03-6.176 7.03H2.66c-.243 0-.44-.184-.44-.41V5.583c0-.226.197-.41.44-.41H14.84c3.411 0 6.176 3.386 6.176 6.562M21.34 5H2.66C2.295 5 2 5.275 2 5.613v12.774c0 .338.295.613.659.613H21.34c.364 0 .659-.275.659-.613V5.613c0-.338-.295-.613-.659-.613"/></svg>