<svg xmlns="http://www.w3.org/2000/svg" fill="none" viewBox="0 0 24 24"><path fill="#1A1876" d="M8.455 15.497h1.942l1.216-6.977H9.67zM15.53 11.321c-.678-.323-1.094-.538-1.09-.865 0-.291.352-.6 1.117-.6a3.6 3.6 0 0 1 1.628.347l.264-1.511a5.1 5.1 0 0 0-1.742-.292c-1.92 0-3.276.947-3.284 2.303-.01 1.002.968 1.562 1.702 1.894.757.341 1.011.56 1.008.865-.006.467-.604.681-1.163.681a4.3 4.3 0 0 1-2.08-.477l-.272 1.562c.693.25 1.426.376 2.164.372 2.043 0 3.369-.936 3.384-2.383.003-.794-.514-1.398-1.635-1.896M22.427 8.526h-1.501a1 1 0 0 0-.61.12.95.95 0 0 0-.408.459l-2.885 6.391h2.04s.334-.86.409-1.048h2.488c.058.245.237 1.046.237 1.046H24zm-2.395 4.498c.08-.202.873-2.195 1.031-2.617.262 1.203.007.036.58 2.617zM6.826 8.525l-1.903 4.757-.203-.966-.68-3.206a.8.8 0 0 0-.329-.456.83.83 0 0 0-.553-.134H.025L0 8.666a8.3 8.3 0 0 1 2.041.766l1.727 6.06h2.056l3.06-6.964z"/></svg>